<?xml version="1.0" encoding="utf-8"?>
<!-- Generator: Adobe Illustrator 17.1.0, SVG Export Plug-In . SVG Version: 6.00 Build 0)  -->
<!DOCTYPE svg PUBLIC "-//W3C//DTD SVG 1.1//EN" "http://www.w3.org/Graphics/SVG/1.1/DTD/svg11.dtd">
<svg version="1.1" id="Layer_1" xmlns="http://www.w3.org/2000/svg" xmlns:xlink="http://www.w3.org/1999/xlink" x="0px" y="0px"
	 viewBox="0 0 324 422.973" enable-background="new 0 0 324 422.973" xml:space="preserve">
<g>
	<path fill="#FFFFFF" d="M43.201,359.973h198c9.941,0,18-8.059,18-18V27c0-9.941-8.059-18-18-18h-198c-9.941,0-18,8.059-18,18
		v314.973C25.201,351.914,33.26,359.973,43.201,359.973z M169.201,331.973c0,5.523-4.477,10-10,10h-34c-5.523,0-10-4.477-10-10v-34
		c0-5.523,4.477-10,10-10h34c5.523,0,10,4.477,10,10V331.973z M169.201,259.973c0,5.523-4.477,10-10,10h-34c-5.523,0-10-4.477-10-10
		v-34c0-5.523,4.477-10,10-10h34c5.523,0,10,4.477,10,10V259.973z M169.201,187.973c0,5.523-4.477,10-10,10h-34
		c-5.523,0-10-4.477-10-10v-34c0-5.523,4.477-10,10-10h34c5.523,0,10,4.477,10,10V187.973z M241.201,331.973c0,5.523-4.477,10-10,10
		h-34c-5.523,0-10-4.477-10-10v-34c0-5.523,4.477-10,10-10h34c5.523,0,10,4.477,10,10V331.973z M241.201,259.973
		c0,5.523-4.477,10-10,10h-34c-5.523,0-10-4.477-10-10v-34c0-5.523,4.477-10,10-10h34c5.523,0,10,4.477,10,10V259.973z
		 M241.201,187.973c0,5.523-4.477,10-10,10h-34c-5.523,0-10-4.477-10-10v-34c0-5.523,4.477-10,10-10h34c5.523,0,10,4.477,10,10
		V187.973z M43.201,36c0-4.971,4.477-9,10-9h178c5.523,0,10,4.029,10,9v63c0,4.971-4.477,9-10,9h-178c-5.523,0-10-4.029-10-9V36z
		 M43.201,153.973c0-5.523,4.477-10,10-10h34c5.523,0,10,4.477,10,10v34c0,5.523-4.477,10-10,10h-34c-5.523,0-10-4.477-10-10
		V153.973z M43.201,225.973c0-5.523,4.477-10,10-10h34c5.523,0,10,4.477,10,10v34c0,5.523-4.477,10-10,10h-34
		c-5.523,0-10-4.477-10-10V225.973z M43.201,297.973c0-5.523,4.477-10,10-10h34c5.523,0,10,4.477,10,10v34c0,5.523-4.477,10-10,10
		h-34c-5.523,0-10-4.477-10-10V297.973z"/>
	<path fill="#FFFFFF" d="M262.016,374.002c-1.215-3.037-4.157-5.029-7.428-5.029H29.813c-3.271,0-6.213,1.992-7.428,5.029l-11.6,29
		c-2.102,5.255,1.768,10.971,7.428,10.971h247.975c5.66,0,9.53-5.716,7.428-10.971L262.016,374.002z"/>
	<path fill="#FFFFFF" d="M302.214,290.771c-6.587-14.354-13.397-29.196-8.524-55.221c3.099-16.551,6.057-24.901,8.665-32.269
		c3.973-11.218,6.979-19.71,7.656-47.484c0.443-1.602,0.689-3.294,0.689-5.048v-58.5c0-0.764-0.06-1.511-0.148-2.25h0.148
		c0-51.783-8.709-58.269-26.826-66.979c-1.207-0.58-2.463-1.184-3.767-1.835l-5.814,11.627c1.367,0.684,2.683,1.316,3.948,1.925
		c12.059,5.797,17.925,8.619,19.192,40.109c-1.046-0.225-2.127-0.347-3.233-0.347h-7c-9.098,0-16.5,7.963-16.5,17.75v58.5
		c0,9.787,7.402,17.75,16.5,17.75h7c1.153,0,2.278-0.13,3.365-0.373c-1.083,16.049-3.392,22.584-6.436,31.18
		c-2.618,7.392-5.876,16.591-9.146,34.053c-5.568,29.743,2.388,47.081,9.407,62.379c4.531,9.874,8.444,18.402,8.491,29.385
		c0.145,33.15-32.513,46.762-33.903,47.325l2.223,5.524l2.21,5.529c1.697-0.678,41.561-17.085,41.381-58.43
		C311.733,311.514,306.894,300.969,302.214,290.771z M294.2,155.5h-7c-1.897,0-3.5-2.175-3.5-4.75v-58.5
		c0-2.575,1.603-4.75,3.5-4.75h7c1.897,0,3.5,2.175,3.5,4.75v58.5C297.7,153.325,296.098,155.5,294.2,155.5z"/>
</g>
</svg>
