<?xml version="1.0" encoding="utf-8"?>
<!-- Generator: Adobe Illustrator 17.1.0, SVG Export Plug-In . SVG Version: 6.00 Build 0)  -->
<!DOCTYPE svg PUBLIC "-//W3C//DTD SVG 1.1//EN" "http://www.w3.org/Graphics/SVG/1.1/DTD/svg11.dtd">
<svg version="1.1" id="Layer_1" xmlns="http://www.w3.org/2000/svg" xmlns:xlink="http://www.w3.org/1999/xlink" x="0px" y="0px"
	 viewBox="0 0 324 495" enable-background="new 0 0 324 495" xml:space="preserve">
<g>
	<path fill="#FFFFFF" d="M43.201,432h198c9.941,0,18-8.059,18-18V27c0-9.941-8.059-18-18-18h-198c-9.941,0-18,8.059-18,18v387
		C25.201,423.941,33.26,432,43.201,432z M169.201,404c0,5.523-4.477,10-10,10h-34c-5.523,0-10-4.477-10-10v-34
		c0-5.523,4.477-10,10-10h34c5.523,0,10,4.477,10,10V404z M169.201,332c0,5.523-4.477,10-10,10h-34c-5.523,0-10-4.477-10-10v-34
		c0-5.523,4.477-10,10-10h34c5.523,0,10,4.477,10,10V332z M169.201,260c0,5.523-4.477,10-10,10h-34c-5.523,0-10-4.477-10-10v-34
		c0-5.523,4.477-10,10-10h34c5.523,0,10,4.477,10,10V260z M169.201,188c0,5.523-4.477,10-10,10h-34c-5.523,0-10-4.477-10-10v-34
		c0-5.523,4.477-10,10-10h34c5.523,0,10,4.477,10,10V188z M241.201,404c0,5.523-4.477,10-10,10h-34c-5.523,0-10-4.477-10-10v-34
		c0-5.523,4.477-10,10-10h34c5.523,0,10,4.477,10,10V404z M241.201,332c0,5.523-4.477,10-10,10h-34c-5.523,0-10-4.477-10-10v-34
		c0-5.523,4.477-10,10-10h34c5.523,0,10,4.477,10,10V332z M241.201,260c0,5.523-4.477,10-10,10h-34c-5.523,0-10-4.477-10-10v-34
		c0-5.523,4.477-10,10-10h34c5.523,0,10,4.477,10,10V260z M241.201,188c0,5.523-4.477,10-10,10h-34c-5.523,0-10-4.477-10-10v-34
		c0-5.523,4.477-10,10-10h34c5.523,0,10,4.477,10,10V188z M43.201,37c0-5.523,4.477-10,10-10h178c5.523,0,10,4.477,10,10v70
		c0,5.523-4.477,10-10,10h-178c-5.523,0-10-4.477-10-10V37z M43.201,154c0-5.523,4.477-10,10-10h34c5.523,0,10,4.477,10,10v34
		c0,5.523-4.477,10-10,10h-34c-5.523,0-10-4.477-10-10V154z M43.201,226c0-5.523,4.477-10,10-10h34c5.523,0,10,4.477,10,10v34
		c0,5.523-4.477,10-10,10h-34c-5.523,0-10-4.477-10-10V226z M43.201,298c0-5.523,4.477-10,10-10h34c5.523,0,10,4.477,10,10v34
		c0,5.523-4.477,10-10,10h-34c-5.523,0-10-4.477-10-10V298z M43.201,370c0-5.523,4.477-10,10-10h34c5.523,0,10,4.477,10,10v34
		c0,5.523-4.477,10-10,10h-34c-5.523,0-10-4.477-10-10V370z"/>
	<path fill="#FFFFFF" d="M262.016,446.029c-1.215-3.037-4.157-5.029-7.428-5.029H29.813c-3.271,0-6.213,1.992-7.428,5.029l-11.6,29
		C8.683,480.284,12.553,486,18.213,486h247.975c5.66,0,9.53-5.716,7.428-10.971L262.016,446.029z"/>
	<path fill="#FFFFFF" d="M302.867,346.722c-6.667-17.311-13.561-35.211-8.61-66.713c3.117-19.835,6.092-29.84,8.716-38.668
		c4.184-14.075,7.284-24.52,7.683-62.641c0.016-0.317,0.045-0.63,0.045-0.951v-58.5c0-0.764-0.06-1.511-0.148-2.25h0.148
		c0-51.784-8.709-58.268-26.826-66.978c-1.207-0.581-2.463-1.184-3.767-1.836l-5.814,11.628c1.367,0.683,2.683,1.316,3.948,1.924
		c12.059,5.797,17.925,8.619,19.192,40.109c-1.046-0.225-2.127-0.347-3.233-0.347h-7c-9.098,0-16.5,7.962-16.5,17.75v58.5
		c0,9.788,7.402,17.75,16.5,17.75h7c1.045,0,2.065-0.117,3.056-0.318c-0.96,22.968-3.418,31.26-6.746,42.455
		c-2.604,8.76-5.845,19.663-9.096,40.354c-5.491,34.943,2.378,55.376,9.321,73.404c4.588,11.915,8.551,22.204,8.6,35.629
		c0.146,40.151-32.557,56.443-33.948,57.117l5.607,11.728c1.695-0.807,41.518-20.329,41.341-68.892
		C312.279,371.159,307.494,358.736,302.867,346.722z M294.2,182.5h-7c-1.897,0-3.5-2.175-3.5-4.75v-58.5
		c0-2.575,1.603-4.75,3.5-4.75h7c1.897,0,3.5,2.175,3.5,4.75V170c0,2.902-0.014,5.643-0.039,8.255
		C297.467,180.6,295.971,182.5,294.2,182.5z"/>
</g>
</svg>
